<svg xmlns="http://www.w3.org/2000/svg" width="1050" height="1050"><path d="M0 0h1050v1050H0z"/><path d="m416.023 148.797 3.186-.021q5.083-.024 10.166-.026l3.486-.005c16.601-.002 32.73.567 49.139 3.255 10.953 1.794 21.804 2.611 32.875 3.125l2.64.126c26.416 1.247 52.526.828 78.9-1.007 15.132-1.029 30.257-1.354 45.421-1.42q2.617-.01 5.236-.033c14.02-.102 28.05.325 41.616 4.272l2.205.627c13.934 4.173 27.225 10.624 40.107 17.31q2.625 1.283 5.25 2.563c3.85 1.915 7.47 4.054 11.059 6.421 1.83 1.183 1.83 1.183 4.691 2.016v2l2.508.773c3.926 1.38 7.615 3.063 11.367 4.852l2.086.984A1895 1895 0 0 1 773 197v2l2 .266c3.959.969 7.355 2.69 11 4.484 5.124 2.475 10.212 4.795 15.563 6.75 11.473 4.283 22.087 10.095 32.417 16.629 2.835 1.757 5.703 3.365 8.645 4.934 9.1 4.905 17.264 10.433 25.16 17.117 2.076 1.843 2.076 1.843 4.215 2.82v2l2.023.555c4.304 2.09 7.256 5.194 10.602 8.57l2.125 2.134c6.969 7.183 16.122 16.669 18.25 26.741h2c1.523 2.14 1.523 2.14 3.375 5.25l2.145 3.59 1.19 2.007a487 487 0 0 0 4.24 6.907c22.427 36.264 26.967 77.716 17.546 119.363a333 333 0 0 1-6.82 23.792c-.974 3.013-1.848 6.053-2.739 9.091-2.224 7.185-5.179 14.001-8.203 20.879-6.844 15.713-13.033 31.737-18.984 47.808-13.836 37.052-32.44 72.488-53.375 106-7.6 12.176-15.061 24.175-19.926 37.727-5.08 12.57-12.159 24.333-19.388 35.763-3.54 5.703-6.4 11.597-9.186 17.698-8.008 17.407-18.34 27.279-34.727 36.7-7.14 4.129-13.357 8.547-19.148 14.425a632 632 0 0 1-5.812 5.375l-1.584 1.445A2960 2960 0 0 1 731 790l-2.453 2.234-2.11 1.891-1.816 1.633C723 797 723 797 720 798v2c-1.695 1.523-1.695 1.523-4.125 3.375-4.4 3.428-8.66 6.975-12.875 10.625a421 421 0 0 1-14.371 11.871c-3.29 2.664-6.489 5.424-9.692 8.192-4.41 3.804-8.845 7.523-13.492 11.039a193 193 0 0 0-5.765 4.671c-6.492 5.408-13.002 10.309-20.367 14.477l-2.034 1.16c-3.433 1.87-5.284 2.59-9.279 2.59v2l-2.902 1.25A1608 1608 0 0 0 612 877l-2.281 1.004c-8.014 3.548-15.495 6.91-22.153 12.746C586 892 586 892 584 892l-1 3c-9.93 7.767-20.7 12.08-33.255 12.177l-2.161.02c-2.358.02-4.715.031-7.072.041l-2.47.013q-6.5.03-12.999.044-5.304.014-10.61.062c-26.758.237-51.89.136-76.456-11.83-6.787-3.27-13.462-5.707-20.664-7.902-9.505-2.899-18.438-6.518-27.42-10.749a191 191 0 0 0-5.612-2.474C366.97 867.004 351.538 856.868 337 845q-1.794-1.454-3.59-2.906A3944 3944 0 0 1 312 824.625l-2.065-1.692c-13.242-10.897-24.516-22.804-33.81-37.308-2.684-4.155-5.751-7.924-8.875-11.75-5.498-6.757-10.346-13.8-15.088-21.1-5.57-8.513-11.559-16.661-17.714-24.752a183 183 0 0 1-9.136-13.336c-5.673-9.035-12.457-16.82-19.75-24.562-8.88-9.457-16.409-19.434-23.076-30.57-1.866-3.095-3.652-5.743-6.06-8.47-2.988-3.8-4.378-7.486-5.926-12.023l-.896-2.544a813 813 0 0 1-1.774-5.119c-.735-2.125-1.5-4.236-2.283-6.344-3.818-10.649-5.744-21.432-6.926-32.653-.878-8.198-2.744-15.686-5.059-23.59-4.284-14.78-6.257-29.08-7.576-44.39l-.361-4.172-.18-2.104c-.766-8.812-1.898-17.386-3.882-26.021C134.457 460.68 130.077 423.633 138 392l.536-2.301c4.88-20.9 12.588-39.746 24.464-57.699q1.288-2 2.57-4.004c5.25-8.191 10.596-16.29 16.2-24.246a1583 1583 0 0 0 4.105-5.875C202.038 274.743 202.038 274.743 210 267l2.613-2.648C217.901 259.01 223.26 253.857 229 249q3.44-2.934 6.875-5.875l1.844-1.575a456 456 0 0 0 10.469-9.238c4.236-3.841 8.606-7.484 13.054-11.078a371 371 0 0 0 5.266-4.343c15.743-13.192 32.736-23.763 50.488-33.982a369 369 0 0 0 13.817-8.409c21.373-13.482 40.949-21.18 66.187-24.5l3.646-.533c5.12-.632 10.225-.647 15.377-.67" fill="#FDFDFD"/><path d="m648 237-.477 1.785c-.768 3.25-.874 5.884-.523 9.215 3.153 4.108 7.243 6.974 12 9 2.829.31 5.2.432 8 .313l2.244-.047c5.99-.154 11.958-.597 17.932-1.036 24.04-1.448 43.195 3.042 62.552 18.189 7.143 5.586 13.93 9.566 22.33 12.94 4.009 1.618 7.777 3.57 11.567 5.641l1.874 1.016 3.694 2.006C807.956 306.172 823.804 311.041 845 313c-2.745 6.16-8.95 8.574-15 11-4.58 1.407-9.272 2.256-14 3 18.952 11.66 36.75 20.78 59 24-6.078 7.388-22.085 9.793-31 11-22.306 1.981-42.892-4.798-62-16 10.863 10.427 24.497 23.174 39.688 25.875 4.009 1.239 5.494 3.51 7.478 7.13 4.608 9.28 7.997 19.048 10.834 28.995l.642 2.164c4.415 15.371 3.768 31.003 3.358 46.836l-4-2v-2l-3-1c-1.845-1.876-3.368-3.927-5-6l.875 2.742c5.612 19.743 6.098 46.503.125 66.258l-2 3-2.082-1.68-2.73-2.195-2.708-2.18c-2.516-2.024-2.516-2.024-5.48-3.945l.98 3.39c1.197 4.812 1.365 9.42 1.332 14.36l-.014 2.67C820.09 539.972 816.7 549.522 812 560h-3c-1.605-2.117-1.605-2.117-3.187-4.875l-1.606-2.742C803 550 803 550 803 548h-2l-3-6-.262 3.008C796.293 559.693 792.477 571.413 783 583l-2.121 2.809L779 588h-2c-1.512-5.028-2.675-10.026-3.625-15.187l-.406-2.116C772.35 567.38 772 564.39 772 561l-2 1c-.663 2.107-.663 2.107-1.187 4.688C764.87 581.676 756.558 593.87 744 603h-2c-1.229-6.068-2.276-11.799-2-18-.715.447-1.43.895-2.168 1.355-7.372 4.473-14.724 7.758-22.832 10.645l-1.836.714c-5.14 1.998-10.329 3.524-15.664 4.911l-2.434.656c-10.108 2.654-19.834 2.959-30.254 2.969l-2.146.003c-26.018-.025-48.274-5.37-71.498-17.152-6.977-3.539-14.06-6.833-21.168-10.101v-2l-2.312-.437C565 576 565 576 562 575v-2l-2.875-.437C556 572 556 572 554 571v-2l-2.574-.281c-3.908-.82-6.758-2.278-10.239-4.219-1.14-.63-2.281-1.258-3.457-1.906C535 561 535 561 534 560a153 153 0 0 1-.098-6.66l.005-2.014c.005-2.13.018-4.259.03-6.389q.009-2.16.014-4.322.017-5.308.049-10.615l-.953 3.113-1.297 4.2-.621 2.033c-1.853 5.978-3.982 11.749-6.129 17.654l-27-2-2.875-9-.894-2.785-.723-2.278-.73-2.285c-1.033-3.52-1.888-7.092-2.778-10.652l-1 29-9 3c-2.6 1.07-5.17 2.186-7.738 3.328-2.643.785-3.693.584-6.262-.328-1.46-1.272-1.46-1.272-2.805-2.879l-1.51-1.783-1.56-1.9-1.606-1.917c-3.662-4.396-7.175-8.877-10.519-13.521 3.082 8.44 6.178 16.775 10.117 24.863C459 568 459 568 459 571c-1.977 1.797-1.977 1.797-4.625 3.75-4.447 3.411-7.903 6.865-11.375 11.25-6.183-1.645-11.397-4.926-16.875-8.125l-2.953-1.707A2067 2067 0 0 1 416 572l2.348 2.348L426 582l1.648 1.578c1.487 1.438 2.923 2.927 4.352 4.422v2l1.938.75C436 592 436 592 436.84 593.64c.245 3.618-1.526 6.278-3.215 9.36-2.835 5.292-2.835 5.292-4.625 11-7.316.185-14.316-.53-21.562-1.5l-3.346-.434q-4.047-.525-8.092-1.066l3.078 1.137c20.148 7.476 20.148 7.476 26.922 10.863v23l-7.062 2.25-2.118.68c-7.225 2.279-14.47 4.11-21.82 6.07l34 1 3 9 1.688 3.813C435 672 435 672 435 676a50 50 0 0 1-5.562 4.563l-1.734 1.282a502 502 0 0 1-3.718 2.717 811 811 0 0 0-6.19 4.536c-3.589 2.647-7.19 5.278-10.796 7.902 6.31-2.496 12.596-5.05 18.875-7.625l2.234-.912c2.803-1.152 5.546-2.28 8.227-3.697 2.426-1.117 4.162-.46 6.664.234l1 3 3 1a381 381 0 0 1 5 6l3 2c-.915 4.216-2.915 7.613-5.062 11.313a610 610 0 0 0-9.5 17.187l-1.05 1.978q-1.196 2.26-2.388 4.522l1.879-2.098a717 717 0 0 1 17.058-18.215l1.934-2.049 1.844-1.876 1.629-1.689C463 705 463 705 464.989 705.243a339 339 0 0 1 9.386 3.694c1.94.795 3.88 1.583 5.83 2.353 1.541.61 3.074 1.243 4.604 1.882 2.93.76 5.201.953 8.203 1.004 15.97.282 15.97.282 20.488 4.527 2.345 2.707 4.311 5.664 6.29 8.645 4.92 6.714 12.692 11.39 20.21 14.652l-1.687-1.582c-5.778-5.573-11.275-11.43-15.313-18.418v-4h-2c-4.372-11.48-8.228-22.528-8-35l3.121-.996c14.174-4.673 27.677-10.534 38.996-20.473C557 660 557 660 560 659l1-3h2l.813-1.766c1.202-2.262 2.525-4.04 4.187-5.984l1.563-1.86C571 645 571 645 573 645v-2c11.636-10.376 23.043-14.05 38.336-13.418 8.815.626 16.315 4.21 22.664 10.418v2l-2.555.805-3.32 1.07-3.305 1.055c-2.905.882-2.905.882-4.82 3.07l2.5 1.875L625 652v2l-2.703.367-3.547.508-3.516.492c-2.835.555-4.823 1.083-7.234 2.633l-1 2 5 2c-1.135 3.406-1.994 3.98-4.75 6.125-5.842 4.94-9.705 11.282-10.455 18.981l-.111 2.222-.127 2.422-.12 2.5-.13 2.547q-.158 3.1-.307 6.203a4800 4800 0 0 1-9.5 4.313l-2.687 1.224C578.6 710.894 573.38 713.057 568 715c23.867.996 46.683-2.006 65.617-17.969C635 696 635 696 637 696l1-3h2l.809-1.773c1.21-2.263 2.545-3.946 4.254-5.852 1.6-1.793 2.86-3.222 3.937-5.375l11 1-1.375-4.125L655 666c1.663-1.663 3.783-1.36 6.063-1.562l2.785-.254L666 664c-2.2-6.432-2.2-6.432-6-12 9.704-.809 18.012 2.162 25.5 8.438 8.722 8.379 11.422 18.05 11.688 29.875-.115 9.31-2.47 17.202-6.188 25.687h-2l-2.25-2.5c-2.496-2.7-2.496-2.7-5.562-3.062-5.27.93-9.474 2.946-13.375 6.625-3.989 6.464-6.668 13.397-9.125 20.562-8.88 25.179-22.024 43.099-46.434 55.27-7.112 3.557-12.86 7.127-18.62 12.75-5.214 5.057-10.993 9.245-16.837 13.539-4.113 3.023-8.056 6.219-11.977 9.488C563 830 563 830 561 830v2a154 154 0 0 1-3.379 3.398C549.634 843.29 543.795 851.876 539 862c-4.284-6.426-3.594-14.511-3-22a56.6 56.6 0 0 1 3-10c-17.763 8.757-32.644 21.865-44 38a554 554 0 0 1-3 4c-.513-22.718 4.141-44.556 20.182-61.713 6.3-6.43 13.269-11.418 20.818-16.287a2697 2697 0 0 0 5.313-3.562A1782 1782 0 0 1 542 788l-2.387 1.137c-5.591 2.627-11.125 5.108-16.926 7.238-11.77 4.432-26.662 10.326-35.437 19.5-8.1 5.296-20.351 1.957-29.367.098-18.258-4.15-37.394-11.89-51.883-23.973l-3-1.937c-3.054-2.1-5.42-4.415-8-7.063l-2.312-1.687L391 780v-2l15-2-3.043-1.434C389.633 768.17 377.405 760.653 367 750l-1.625-1.559C354.22 737.66 354.22 737.66 352 731l16-4-3.437-1.562C352.576 719.402 341.52 708.72 335 697c-.687-2.797-.687-2.797-1-5h-2l-1-5 23 2-7-6c-7.911-9.149-15.21-20.37-15.062-32.75l.027-2.984L332 645c5.605 1.578 10.35 4.264 15.375 7.125l2.52 1.418Q352.95 655.265 356 657c-2.284-4.03-4.61-8.007-7.062-11.937-7.022-11.744-8.326-23.509-7.938-37.063 3.83.647 6.528 2.453 9.75 4.563l2.984 1.94L356 616l.367-3.379C358.241 597.756 362.605 583.51 369 570l.901-1.927c15.218-31.958 43.918-58.688 76.536-72.135l3.16-1.307c17.936-7.237 36.084-11.032 55.466-10.943l3.824.012c18.993.227 36.797 3.341 54.113 11.3l3.156 1.447q5.205 2.396 10.407 4.803l3.634 1.68L589 507c-1.226 3.371-2.552 5.994-4.82 8.77l-1.621 2.001-1.684 2.042-1.707 2.1q-2.076 2.55-4.168 5.087c6.371-4.136 12.383-8.582 18.3-13.34 2.7-1.66 2.7-1.66 4.557-1.407 2.468.86 4.772 1.898 7.127 3.032l2.832 1.358c1.453.702 1.453.702 2.934 1.42l2.98 1.431q3.637 1.748 7.27 3.506a115 115 0 0 1-5 17.625c-1.862 5.087-3.573 10.147-5 15.375l1.215-1.984c4.562-7.325 9.537-14.17 14.785-21.016q1.504-1.998 3-4l2.625.813c6.063 1.645 12.232 2.87 18.375 4.187l2 34c1.888-8.615 1.888-8.615 3.769-17.231l.723-3.277.73-3.332c.769-3.123 1.718-6.125 2.778-9.16q4.093-.505 8.188-1l2.33-.29c3.851-.462 7.594-.835 11.482-.71 2.347 3.965 4.386 7.826 6.177 12.08 1.424 3.323 2.973 6.587 4.51 9.857l.971 2.073L697 562l-.367-2.276q-.823-5.142-1.633-10.287l-.578-3.58c-.89-5.675-1.692-11.109-1.422-16.857a845 845 0 0 1 7.75-4.562l2.21-1.327 2.15-1.24 1.967-1.158c2.42-.897 3.544-.645 5.923.287 2.297 2.04 2.297 2.04 4.75 4.625 5.75 5.928 11.79 11.238 18.25 16.375l-1.18-1.844q-1.804-2.827-3.593-5.664a425 425 0 0 0-4.954-7.61l-2.773-4.257-1.386-2.053c-3.163-4.907-3.163-4.907-2.895-8.549L720 510l3-1c1.054-1.814 1.054-1.814 2-4q1.531-2.395 3.125-4.75l1.633-2.422L731 496c4.167.69 7.892 1.994 11.832 3.504l1.93.735q3.027 1.158 6.05 2.324l4.124 1.576Q759.97 506.063 765 508c-.583-.385-1.166-.77-1.767-1.165a363 363 0 0 1-15.655-11.003c-2.562-1.885-2.562-1.885-5.406-3.445L740 491v-2l-3-1c.699-4.722 1.802-9.278 3.063-13.875l.564-2.086q.683-2.52 1.373-5.039l2.491-.076q5.598-.176 11.197-.361l3.92-.12 3.779-.127 3.475-.11c3.472-.159 3.472-.159 8.138-1.206l-32-7-1-8.687-.316-2.71-.246-2.177-.254-2.206c-.2-2.416-.214-4.797-.184-7.22q5.78-2.658 11.563-5.312l3.29-1.514c5.356-2.458 10.714-4.89 16.147-7.174l-2.46.459q-4.557.845-9.118 1.677-2.928.538-5.854 1.087l-3.76.683-3.443.635c-3.496.477-6.841.537-10.365.459-1.257-2.906-2-4.796-2-8h-2l-1.687-3.625c-1.984-3.996-4.336-7.067-7.313-10.375a612 612 0 0 1 3.402-8.383c4.586-11.12 7.919-21.504 8.598-33.617l-.812 2.64c-6.405 19.468-20.256 35.52-37.399 46.68-2.378.904-3.46.666-5.789-.32-1.465-1.46-1.465-1.46-2.937-3.375-12.626-14.916-30.466-25.698-49.383-30.46-8.956-2.304-16.325-5.52-23.68-11.165v-2l-3-1c-2.235-2.49-4.09-5.255-6-8l-1.687-2.375c-5.265-10.53-5.755-21.438-2.313-32.625 3.419 1.438 5.28 3.215 7.625 6.063 2.33 2.916 2.33 2.916 5.375 4.937l2-8c2.284 2.162 4.073 4.428 5.875 7 2.365 3.216 4.448 5.27 8.125 7v-7l2 .813 3 1.187 3.375 1.625c7.93 2.929 17.508 2.587 25.313-.5a72 72 0 0 0 6.332-3.32c2.545-1.035 3.455-.864 5.98.195 2.402 1.707 2.402 1.707 4.938 3.813l2.527 2.082L688 338l2.816 2.137L693 342v2l1.875.875C697 346 697 346 699 348c-6.705-21.944-20.935-39.082-41-50l-2.246-1.27c-7.093-3.81-14.779-5.863-22.754-6.73l-4-10c-5.869 4.75-5.869 4.75-10 11-3.288-3.11-5.837-6.016-8-10a311 311 0 0 0-2.937 3.25l-1.653 1.828c-1.472 2.007-1.985 3.492-2.41 5.922h-2c-4.225-8.274-4.64-18.982-2.203-27.926A46.5 46.5 0 0 1 603 258l1.625-3.062L606 253h2l.781-1.812c4.171-7.487 13.75-10.517 21.469-12.875 5.91-1.52 11.678-1.517 17.75-1.313" fill="#020202"/><path d="M414 233c-.639 5.527-1.937 10.624-3.562 15.938l-.71 2.36Q408.87 254.152 408 257l1.224-1.411c8.144-9.19 20.58-14.846 32.776-15.589 4.668-.075 9.332-.059 14 0-1.451 3.126-3.203 5.783-5.258 8.547l-1.894 2.558-1.973 2.645-1.996 2.691Q442.443 259.724 440 263l2.457-1.207c15.697-7.51 31.457-10.855 48.543-5.793q-1.426 2.007-2.875 4l-1.617 2.25L485 264h-2l-.937 1.875L480 270l2.379.25c4.805.995 9.065 2.807 13.558 4.75l2.817 1.217c15.858 7.01 29.68 16.547 42.496 28.22l1.739 1.578c1.379 1.285 2.7 2.63 4.011 3.985v2l3 1a88 88 0 0 1 4.625 5.688l1.33 1.762c25.572 34.34 37.03 74.782 31.012 117.6-2.116 12.799-6.21 24.912-10.967 36.95l-.886 2.248c-4.124 10.24-4.124 10.24-6.966 11.709-2.906.058-4.66-.875-7.273-2.144-27.192-11.673-57.96-7.93-85.875-.813 2.948-3.116 6.062-5.59 9.563-8.062 3.756-2.63 3.756-2.63 7.152-5.684C493 471 493 471 495 471l.734-1.629c1.589-2.975 3.533-5.58 5.516-8.308 8.09-11.426 13.64-24.067 14.75-38.063 6.597-2.42 13.154-3.952 20.063-5.187l2.912-.538q3.51-.646 7.025-1.275c-2.232-1.116-3.592-1.18-6.07-1.281l-2.47-.114-2.585-.105c-6.013-.252-11.912-.674-17.875-1.5l-.586-3.91-.789-5.152-.383-2.569c-.761-4.93-1.756-9.607-3.242-14.369 8.35-5.852 17.192-10.883 26-16a328 328 0 0 0-24.102 6.23C511 378 511 378 508 378l-1-4h-2c-1.402-2.082-1.402-2.082-2.937-4.812-2.01-3.67-2.01-3.67-4.817-6.7C496 361 496 361 496.13 358.563c.93-2.735 1.97-4.348 3.808-6.563l1.875-2.309L504 347c1.826-2.344 3.632-4.703 5.438-7.062l2.62-3.41L514 334c-5.193 3.32-10.052 6.715-14.59 10.898C498 346 498 346 496 346v2c-3.675 2.84-5.269 4-10 4-2.332-1.39-2.332-1.39-4.812-3.25-3.953-2.887-7.89-5.414-12.188-7.75-.192-5.025.375-9.023 1.875-13.812A153 153 0 0 0 475 310c-5.063 8.967-10.105 17.94-15 27a243 243 0 0 1-16.863-2.04l-3.498-.544L437 334q-.971-6.25-1.937-12.5l-.553-3.555c-.923-5.974-1.804-11.941-2.51-17.945l-.26 2.46q-.586 5.55-1.178 11.103l-.408 3.869-.4 3.76-.365 3.443c-.4 3.466-.88 6.914-1.389 10.365l-8.687 1.938-2.475.552c-3.939.877-7.876 1.743-11.838 2.51l-1.758-3.148c-3.92-7.006-7.85-13.992-12.05-20.836-1.163-1.966-2.197-3.961-3.192-6.016 2.232 9.487 4.775 18.706 8.047 27.89C397 341 397 341 397 345c-1.723 1.492-1.723 1.492-4.062 2.875-4.374 2.713-8.103 5.698-11.938 9.125a41.8 41.8 0 0 1-7.574-4.574l-2.012-1.515-2.101-1.599-2.153-1.625A954 954 0 0 1 352 336l2.055 2.605q2.922 3.709 5.828 7.43a502 502 0 0 0 6.11 7.649l2.757 3.441 1.34 1.61c2.915 3.676 2.915 3.676 2.894 6.288-1.816 3.648-4.125 6.942-6.39 10.32-1.422 2.37-2.017 4.014-2.594 6.657-6.838-.563-13.004-1.957-19.562-3.937q-2.69-.798-5.38-1.59l-2.574-.762c-3.475-.995-6.971-1.862-10.484-2.711l1.995 1.07c6.994 3.78 13.862 7.739 20.692 11.805l3.03 1.797Q355.36 389.833 359 392l-.465 2.312C356.368 405.46 356.812 416.694 357 428c-4.21-.449-8.406-.91-12.594-1.547-11.875-1.58-22.86-.24-34.406 2.547l1.873.18c12.962 1.307 24.393 2.988 36.127 8.82l3.004 1.477c6.37 3.313 12.211 7.281 17.996 11.523-.687 3.517-2.126 6.29-3.812 9.438-9.052 17.907-10.682 36.359-10.051 56.004.48 16.31-1.674 29.154-13.137 41.558-3.728 3.427-6.978 5.991-12 7v2c-5.395 2.271-10.262 2.204-16 2 .554-2.5 1.091-4.15 2.438-6.375 1.667-2.801 2.621-5.513 3.562-8.625h-8l1.46-2.45c.633-1.068 1.264-2.136 1.915-3.237l1.898-3.2A56.6 56.6 0 0 0 321 537l-8 2 .14-3.367c.4-13.503-1.795-22.392-11.14-32.633-2.72-2.466-2.72-2.466-5-4 1.607-10.84 5.985-20.34 11-30l-2.875 2.5C302.25 474 302.25 474 300 474l-.777 1.762c-1.334 2.442-2.844 4.062-4.786 6.05C278.76 499.23 273.016 520.927 274 544c.269 1.712.556 3.422.875 5.125.125 3.875.125 3.875-1.074 5.746-1.525 1.599-2.945 2.931-4.801 4.129h-2c1.594 3.187 4.788 3.89 8 5 1.988.398 3.987.755 6 1-.33 5.443-3.457 8.156-7 12l14 3c-3.546 4.432-6.085 6.649-11 9l-3.242 1.59c-7.374 3.112-17.6 2.604-25.07-.09-2.329-1.133-2.329-1.133-4.688-2.5l-2.734-1.555c-9.808-6.312-15.518-15.97-20.266-26.445v-3l1.863-.332 2.45-.48 2.425-.458c2.547-.822 3.599-1.661 5.262-3.73 3.865-8.748 1.854-15.511-1.367-24.07-2.057-5.083-4.444-10.01-6.82-14.95-2.35-4.912-4.316-9.739-5.813-14.98l-.836-2.207c-5.779-16.833-2.814-38.533 3.375-54.914 2.23-6.495 2.476-13.329 3.024-20.129 1.262-15.022 1.262-15.022 2.503-22.402 1.06-6.57 1.317-13.012 1.309-19.66l.002-3.552c-.118-9.312-1.547-17.293-4.377-26.136a140 140 0 0 1-1-5c10.553 4.413 17.183 12.35 23 22 2.382-9.972 4.682-19.71 5-30l.156-3.691c.237-10.08-1.107-19.453-3.156-29.309 11.88 9.699 18.738 20.643 24 35l1.32 3.563c2.79 7.652 4.814 13.979 4.778 22.164l-.01 3.875-.026 4.023q-.008 2.024-.013 4.047-.014 3.702-.033 7.405Q278 386.039 278 389q.947-2.935 1.875-5.875l1.055-3.305c2.502-8.93 3.427-17.228 3.382-26.507l-.008-3.47c-.116-9.435-.925-18.564-4.3-27.472-1.13-3.367-1.798-5.754-.169-9.072 2.685-4.387 5.885-8.349 9.165-12.299l2.184-2.758c3.503-4.325 7.488-7.78 11.816-11.242l2.438-2.5C308 282 308 282 314 278l1 15 4.063-6c7.528-10.957 7.528-10.957 11.937-15h2l1-3c3.464-3.24 7.255-6.091 11-9l2.754-2.156c6.409-4.851 12.974-8.422 20.246-11.844v18h2l.563-2c2.888-6.028 7.943-11.233 13.437-15h2v-2c19.951-12 19.951-12 28-12" fill="#020202"/><path d="m645 717 1 2c-5.984 17.834-22.537 29.781-38 39 .428-2.414.893-4.81 1.41-7.207.612-2.714.612-2.714.899-5.18.835-4.238 1.965-6.098 5.543-8.636 2.39-1.392 4.834-2.666 7.293-3.934 3.837-1.98 7.378-4.264 10.918-6.73l3.097-2.137c2.87-2.198 5.347-4.564 7.84-7.176" fill="#EFEFEF"/><path d="M669 276c15.95-1.217 29.351 4.484 43 12l3.004 1.629c2.01 1.104 4.01 2.223 5.996 3.371v2c-3.003.4-5.985.717-9 1l-2.812.383c-9.662.796-14.953-3.814-22.188-9.383-5.782-3.828-11.42-6.807-18-9z" fill="#F1F1F1"/><path d="M248 469c3.254 2.834 4.52 4.686 5 9h2c1.749 2.623 3.145 4.748 2.77 7.987l-.555 2.15-.592 2.4L256 493a592 592 0 0 0-1.035 4.648l-.513 2.343c-1.652 7.655-3.1 15.161-3.452 23.009-4.974-3.999-5.275-11.007-6-17-.885-11.854-.779-25.663 3-37" fill="#F6F6F6"/><path d="M419 687c2.13 1.065 3.366 2.292 5 4-5.862 3.148-11.581 5.264-18 7 3.97-4.218 8.308-7.612 13-11" fill="#EBEBEB"/><path d="M530 731c3.92 3.804 7.491 7.816 11 12-4.776-1.642-8.794-4.265-13-7z" fill="#E0E0E0"/><path d="m444 717 3 4a340 340 0 0 1-2.375 3.5l-1.336 1.969L442 728h-2l-.875 1.938C438 732 438 732 436 733c1.427-3.79 3.162-7.271 5.125-10.812l1.633-2.958z" fill="#DDD"/><path d="M492 472c0 3 0 3-1.75 4.824l-2.25 1.863-2.25 1.887L484 482l1 2-10 2c2.966-3.135 6.107-5.631 9.625-8.125 3.862-2.731 3.862-2.731 7.375-5.875" fill="#353535"/><path d="m579 638 2 1-14 14-2-1a418 418 0 0 1 2.875-3.5l1.617-1.969L571 645h2v-2a159 159 0 0 1 6-5" fill="#292929"/><path d="m322 426-2 4h-12c2.398-2.398 3.712-2.523 7-3.125l2.688-.508C320 426 320 426 322 426" fill="#EBEBEB"/><path d="m542 787 2 1-13 8-1-4a753 753 0 0 1 5.875-2.562l3.305-1.442z" fill="#C7C7C7"/><path d="M736 360h1l-1 13-4-1q.716-2.438 1.438-4.875l.808-2.742C735 362 735 362 736 360" fill="#BDBDBD"/><path d="m223 344 7 3c-1 3-1 3-3.062 4.188L225 352c-1.257-2.906-2-4.796-2-8" fill="#242424"/><path d="m416 689 2 1-3 3 1 2-10 3c3.17-3.26 6.4-6.222 10-9m-22-79 10 1 1 4q-2.19-.676-4.375-1.375l-2.46-.773C396 612 396 612 394 610" fill="#C4C4C4"/><path d="M534 528h1v13l-2-4-2 1z" fill="#C6C6C6"/><path d="M656 665h5l-3 7c-1.562-1.812-1.562-1.812-3-4z" fill="#161616"/><path d="m724 506 3 1v2h-2v2l-1.875.875c-2.258 1.062-2.258 1.062-4.125 3.125l1-5 3-1z" fill="#1D1D1D"/><path d="M533 414c11.522-.185 11.522-.185 17 1-3.088 1.765-4.233 2-8 2v-2h-9z" fill="#AAA"/><path d="m908 504 1 2 2 1c-1.209 3.626-3.357 5.357-6 8 .672-3.806 1.727-7.352 3-11" fill="#262626"/><path d="m867 350 8 1c-2.395 2.9-4.312 3.502-8 4l-1-3z" fill="#1D1D1D"/><path d="M447 540c2.648 2.578 4.944 4.916 7 8l-4 1z" fill="#D5D5D5"/><path d="M731 534c2.743 3.2 4.63 6.005 6 10l-7-6z" fill="#D1D1D1"/><path d="m774 421-10 4 1-4c3.676-.919 5.164-.959 9 0" fill="#CCC"/><path d="M358 731v3l-3 2c-1.5-1.375-1.5-1.375-3-3v-2c2.49-1.245 3.41-.777 6 0" fill="#0F0F0F"/><path d="m442 724 1 3-3 1a90 90 0 0 0-2 4l-2 1c1.312-3.937 2.92-6.227 6-9" fill="#BFBFBF"/><path d="M534 737c3.424 1.215 5.012 3.018 7 6-3.46-1.25-6.147-2.675-9-5z" fill="#CDCDCD"/><path d="m637 733 2 3-7 6-2-1z" fill="#1B1B1B"/><path d="M653 560h2l-2 10h-1q-.04-2.22-.062-4.437l-.036-2.497C652 561 652 561 653 560" fill="#E4E4E4"/><path d="m493 482-2 3c-3.625.188-3.625.188-7 0 1.857-3.713 5.306-3.1 9-3" fill="#E6E6E6"/><path d="M540 371c-6.75 4-6.75 4-9 4l-1-3c6.286-2.429 6.286-2.429 10-1" fill="#D1D1D1"/><path d="m650 856 2 1c-4.75 4.875-4.75 4.875-7 6l-1-3z" fill="#191919"/><path d="M660 652h9l-5 4z" fill="#252525"/><path d="m365 579 2 4-4 6c-1-2-1-2-.441-3.945l.878-2.18.872-2.195z" fill="#3E3E3E"/><path d="M451 548c1.938.375 1.938.375 4 1l1 2-1 2h-3z" fill="#F3F3F3"/><path d="M838 313h7l-2 4-3-1v-2z" fill="#272727"/><path d="M489.625 348.875 492 349l-3 4-4-2c2-2 2-2 4.625-2.125" fill="#222"/></svg>